# xmcd
#
# Track frame offsets: 
#        150
#        12455
#        30918
#        46140
#        57115
#        67187
#        87330
#        104707
#        123953
#        137503
#
# Disc length: 2042 seconds
#
# Revision: 0
# Processed by: cddbd v1.5PL3 Copyright (c) Steve Scherf et al.
# Submitted via: ExactAudioCopy v0.90b4
#
DISCID=8207f80a
DTITLE=Lisa Miller - Trailer Park Honey and Other Love Songs
DYEAR=1996
DGENRE=Country
TTITLE0=Can't See the Forest for the Trees
TTITLE1=2xThat
TTITLE2=Housewife from hell
TTITLE3=Bound and Determined
TTITLE4=Oh Man!
TTITLE5=Messin' 'round
TTITLE6=Survivors Instinct
TTITLE7=Sun Came Up Again
TTITLE8=Rugburn
TTITLE9=Trailer Park Honey
EXTD=
EXTT0=
EXTT1=
EXTT2=
EXTT3=
EXTT4=
EXTT5=
EXTT6=
EXTT7=
EXTT8=
EXTT9=
PLAYORDER=
